<svg width="1024" height="1024" viewBox="0 0 100 100" fill="none" xmlns="http://www.w3.org/2000/svg">
  <defs>
    <linearGradient id="gbg" x1="0" y1="0" x2="1" y2="1"><stop offset="0%" stop-color="#271861"></stop><stop offset="100%" stop-color="#0B0A18"></stop></linearGradient>
    <linearGradient id="gCardL" x1="0" y1="0" x2="1" y2="1"><stop offset="0%" stop-color="#A12BFF"></stop><stop offset="100%" stop-color="#6912C9"></stop></linearGradient>
    <linearGradient id="gCardR" x1="0" y1="0" x2="1" y2="1"><stop offset="0%" stop-color="#4DF03A"></stop><stop offset="100%" stop-color="#16A30C"></stop></linearGradient>
    <linearGradient id="gDice" x1="0" y1="0" x2="1" y2="1"><stop offset="0%" stop-color="#FF9A3D"></stop><stop offset="100%" stop-color="#FF4D4D"></stop></linearGradient>
    <linearGradient id="emY" x1="0" y1="0" x2="0" y2="1"><stop offset="0%" stop-color="#FFDC5A"></stop><stop offset="100%" stop-color="#FFB200"></stop></linearGradient>
    <clipPath id="gclip"><rect width="100" height="100" rx="23"></rect></clipPath>
    <pattern id="gboard" patternUnits="userSpaceOnUse" width="18" height="18"><rect x="1.7" y="1.7" width="14.6" height="14.6" rx="3.6" fill="rgba(255,255,255,0.07)"></rect></pattern>
    <g id="cSheep"><circle cx="-3" cy="1" r="3.2" fill="#ffffff"></circle><circle cx="0.4" cy="-1.3" r="3.5" fill="#ffffff"></circle><circle cx="3.5" cy="1.2" r="3" fill="#ffffff"></circle><circle cx="0.3" cy="2.6" r="3.2" fill="#ffffff"></circle><ellipse cx="3.1" cy="-1.4" rx="1" ry="1.7" fill="#454a63" transform="rotate(-22 3.1 -1.4)"></ellipse><circle cx="4.7" cy="0.4" r="2.5" fill="#454a63"></circle><circle cx="5.4" cy="0" r="0.7" fill="#ffffff"></circle><rect x="-1.8" y="4" width="1.3" height="2.6" rx="0.65" fill="#454a63"></rect><rect x="1.4" y="4.2" width="1.3" height="2.6" rx="0.65" fill="#454a63"></rect></g>
    <g id="cLion"><circle cx="-3.6" cy="-3.4" r="1.7" fill="#b9701f"></circle><circle cx="3.6" cy="-3.4" r="1.7" fill="#b9701f"></circle><circle cx="0" cy="0" r="6" fill="#c47e28"></circle><circle cx="0" cy="0.4" r="4.3" fill="#f0b54a"></circle><circle cx="-1.6" cy="-0.4" r="0.75" fill="#3a2a12"></circle><circle cx="1.6" cy="-0.4" r="0.75" fill="#3a2a12"></circle><circle cx="0" cy="1.7" r="2.1" fill="#ffdfa6"></circle><path d="M-0.9 1.2 H0.9 L0 2.4 Z" fill="#5a3a1a"></path></g>
    <g id="cCactus"><path d="M-2.8 2.6 L2.8 2.6 L2.3 6.4 L-2.3 6.4 Z" fill="#c5713a"></path><rect x="-3.3" y="1.8" width="6.6" height="1.6" rx="0.8" fill="#d98445"></rect><rect x="-4.1" y="-3.2" width="1.8" height="3" rx="0.9" fill="#2f8f4e"></rect><rect x="2.3" y="-2.2" width="1.8" height="3" rx="0.9" fill="#2f8f4e"></rect><rect x="-1.7" y="-6" width="3.4" height="9" rx="1.7" fill="#39a35a"></rect><circle cx="0" cy="-3.5" r="0.5" fill="#2a7a44"></circle><circle cx="0" cy="-1" r="0.5" fill="#2a7a44"></circle></g>
    <g id="cBomb"><rect x="-1.6" y="-4.8" width="3.2" height="2.2" rx="0.7" fill="#3a3a4a"></rect><circle cx="0" cy="1" r="5" fill="#23232f"></circle><circle cx="-1.7" cy="-0.7" r="1.5" fill="#ffffff" opacity="0.16"></circle><path d="M0 -4.8 Q2.6 -7.2 4.2 -6" stroke="#9a7a3a" stroke-width="1.2" fill="none" stroke-linecap="round"></path><circle cx="4.6" cy="-6.2" r="1.5" fill="#FFD24A"></circle><path d="M4.6 -8.4 V-4" stroke="#FFD24A" stroke-width="0.7" stroke-linecap="round"></path><path d="M2.4 -6.2 H6.8" stroke="#FFD24A" stroke-width="0.7" stroke-linecap="round"></path></g>
  </defs>

  <rect width="100" height="100" rx="23" fill="url(#gbg)"></rect>
  <g clip-path="url(#gclip)"><rect width="100" height="100" fill="url(#gboard)"></rect></g>
  <g transform="translate(20,80) scale(0.72)"><use href="#cSheep" transform="translate(0,1.5)"></use><rect x="-7.5" y="3" width="15" height="11" rx="3" fill="#46506e"></rect><rect x="-7.5" y="3" width="15" height="2.4" rx="1.6" fill="#000" opacity="0.22"></rect><rect x="-6.6" y="11.6" width="13.2" height="1.8" rx="0.9" fill="#fff" opacity="0.08"></rect></g>
  <g transform="translate(50,9) scale(0.72)"><use href="#cLion" transform="translate(0,1.5)"></use><rect x="-7.5" y="3" width="15" height="11" rx="3" fill="#8a5a18"></rect><rect x="-7.5" y="3" width="15" height="2.4" rx="1.6" fill="#000" opacity="0.22"></rect><rect x="-6.6" y="11.6" width="13.2" height="1.8" rx="0.9" fill="#fff" opacity="0.08"></rect></g>
  <g transform="translate(12,56) scale(0.72)"><use href="#cCactus" transform="translate(0,1.5)"></use><rect x="-7.5" y="3" width="15" height="11" rx="3" fill="#1d6b3e"></rect><rect x="-7.5" y="3" width="15" height="2.4" rx="1.6" fill="#000" opacity="0.22"></rect><rect x="-6.6" y="11.6" width="13.2" height="1.8" rx="0.9" fill="#fff" opacity="0.08"></rect></g>
  <g transform="translate(75,80) scale(0.72)"><use href="#cBomb" transform="translate(0,2)"></use><rect x="-7.5" y="3" width="15" height="11" rx="3" fill="#882121"></rect><rect x="-7.5" y="3" width="15" height="2.4" rx="1.6" fill="#000" opacity="0.22"></rect><rect x="-6.6" y="11.6" width="13.2" height="1.8" rx="0.9" fill="#fff" opacity="0.08"></rect></g>

  <g transform="rotate(-20 50 50)">
    <rect x="17" y="20" width="31" height="45" rx="7" fill="url(#gCardL)"></rect>
    <rect x="17" y="20" width="31" height="45" rx="7" fill="none" stroke="rgba(255,255,255,0.16)" stroke-width="1"></rect>
    <g transform="translate(32.5,37)">
      <path d="M-13 -2 C-13 -9 -4 -9 -2 -4 C-1 -2.5 1 -2.5 2 -4 C4 -9 13 -9 13 -2 C13 5 6 8.5 2.5 5.8 C1 4.7 -1 4.7 -2.5 5.8 C-6 8.5 -13 5 -13 -2 Z" fill="#fff"></path>
      <ellipse cx="-6" cy="-1.4" rx="3" ry="2.2" fill="#231044" transform="rotate(-12 -6 -1.4)"></ellipse>
      <ellipse cx="6" cy="-1.4" rx="3" ry="2.2" fill="#231044" transform="rotate(12 6 -1.4)"></ellipse>
    </g>
  </g>

  <g transform="rotate(20 50 50)">
    <rect x="52" y="20" width="31" height="45" rx="7" fill="url(#gCardR)"></rect>
    <rect x="52" y="20" width="31" height="45" rx="7" fill="none" stroke="rgba(255,255,255,0.18)" stroke-width="1"></rect>
    <g transform="translate(67.5,37)">
      <path d="M-6 -8 C-6 -14.5 7 -14.5 6 -6 C5.2 -1 0 -1.8 0 3" fill="none" stroke="#fff" stroke-width="4.6" stroke-linecap="round" stroke-linejoin="round"></path>
      <circle cx="0" cy="10" r="2.7" fill="#fff"></circle>
    </g>
  </g>

  <g transform="translate(58,64) rotate(-7 58 64)">
    <path d="M-17 -17 H17 V17 H-17 Z" fill="#000" opacity="0.22" transform="translate(0,2.5)"></path>
    <rect x="-17" y="-17" width="34" height="34" rx="9" fill="url(#gDice)"></rect>
    <rect x="-17" y="-17" width="34" height="17" rx="9" fill="#fff" opacity="0.10"></rect>
    <circle cx="-8" cy="-8" r="3" fill="#fff"></circle><circle cx="8" cy="-8" r="3" fill="#fff"></circle><circle cx="0" cy="0" r="3" fill="#fff"></circle><circle cx="-8" cy="8" r="3" fill="#fff"></circle><circle cx="8" cy="8" r="3" fill="#fff"></circle>
  </g>

  <g transform="translate(15,23) scale(0.6) rotate(-8)">
    <circle r="9" fill="url(#emY)"></circle>
    <polygon points="-1.5 -16.5 -7.5 -7.5 4.5 -8.8" fill="#FF4D9A"></polygon>
    <polygon points="-1.5 -16.5 -7.5 -7.5 4.5 -8.8" fill="#fff" opacity="0.12"></polygon>
    <circle cx="-1.5" cy="-16.8" r="1.7" fill="#FFD700"></circle>
    <circle cx="-3" cy="-2" r="1.3" fill="#6B4A12"></circle><circle cx="3" cy="-2" r="1.3" fill="#6B4A12"></circle>
    <path d="M-4 1.4 Q0 6.4 4 1.4 Q2 3 0 3 Q-2 3 -4 1.4 Z" fill="#6B4A12"></path>
  </g>

  <g transform="translate(87,18) scale(0.6) rotate(8)">
    <circle r="9" fill="url(#emY)"></circle>
    <path d="M-5.6 -2.4 Q-3.5 -5 -1.4 -2.4" fill="none" stroke="#6B4A12" stroke-width="1.5" stroke-linecap="round"></path>
    <path d="M1.4 -2.4 Q3.5 -5 5.6 -2.4" fill="none" stroke="#6B4A12" stroke-width="1.5" stroke-linecap="round"></path>
    <path d="M-5 1.1 Q0 7.2 5 1.1 Q2.5 3 0 3 Q-2.5 3 -5 1.1 Z" fill="#6B4A12"></path>
    <path d="M-3.8 1.5 Q0 2.3 3.8 1.5 L3.6 1 Q0 1.5 -3.6 1 Z" fill="#fff" opacity="0.92"></path>
    <path d="M-7.6 -1 Q-9.8 0.6 -8.2 2.6" fill="none" stroke="#4FC3F7" stroke-width="1.7" stroke-linecap="round"></path>
    <path d="M7.6 -1 Q9.8 0.6 8.2 2.6" fill="none" stroke="#4FC3F7" stroke-width="1.7" stroke-linecap="round"></path>
  </g>

  <g transform="translate(88,78) scale(0.6) rotate(6)">
    <circle r="9" fill="url(#emY)"></circle>
    <path d="M-5 -2.6 Q-3.3 -1.2 -1.6 -2.6" fill="none" stroke="#6B4A12" stroke-width="1.5" stroke-linecap="round"></path>
    <path d="M1.6 -2.6 Q3.3 -1.2 5 -2.6" fill="none" stroke="#6B4A12" stroke-width="1.5" stroke-linecap="round"></path>
    <path d="M-3.4 5 Q0 1.8 3.4 5" fill="none" stroke="#6B4A12" stroke-width="1.6" stroke-linecap="round"></path>
    <path d="M-4.6 0.5 Q-7.2 5 -4.6 7.4 Q-2 5 -4.6 0.5 Z" fill="#4FC3F7"></path>
  </g>
</svg>
